<svg id="Layer_1" data-name="Layer 1" xmlns="http://www.w3.org/2000/svg" viewBox="0 0 101.6 17.93"><defs><style>.cls-1{fill:#fff;}</style></defs><title>zemanta-logo-new-white</title><path class="cls-1" d="M9.6,2.16h-7V4.38H.45V0h12V1.86L3,15.77H13v2.16H0V16Z" transform="translate(0 0)"/><path class="cls-1" d="M26.25,12.15H18.11V15a.71.71,0,0,0,.6.81h7.18v2.07H18.57c-1.8,0-2.7-.87-2.7-2.64V7.17c0-2,.93-3,2.82-3h4.65c1.92,0,2.88.93,2.91,2.82Zm-8.1-2H24V7.26a.91.91,0,0,0-1.05-1H19.29a1,1,0,0,0-1.18,1.12Z" transform="translate(0 0)"/><path class="cls-1" d="M36.78,17.88V6.27H32.19V17.88H29.85V6.27H28.2V4.2h15c1.89,0,2.82.87,2.82,2.58v9h1.5v2.07H43.71V7a.64.64,0,0,0-.55-.72H39.11V17.88Z" transform="translate(0 0)"/><path class="cls-1" d="M59.85,15.77H61.5v2.07H52.86c-2,0-2.91-.9-2.91-2.67V12.69c0-1.71,1-2.58,2.91-2.58h4.68v-2a1.66,1.66,0,0,0-1.86-1.89H52.92V7.84H50.73V4.2h4.92c2.79,0,4.2,1.29,4.2,3.84Zm-2.31,0V12.15H53.11a.71.71,0,0,0-.81.78v2a.76.76,0,0,0,.67.84h4.57Z" transform="translate(0 0)"/><path class="cls-1" d="M71.94,17.88V7.14a.79.79,0,0,0-.7-.87H66.39V17.88H64.05V6.27h-1.5V4.2h9.06a2.35,2.35,0,0,1,2.67,2.64v9h1.5v2.07Z" transform="translate(0 0)"/><path class="cls-1" d="M78.33,6.27h-1.8V4.2h1.8V0h2.31V4.2h3.3V6.27h-3.3v8.58a.88.88,0,0,0,1,1h1.62a5.44,5.44,0,0,0,.72,0v2.07H81.21q-2.88,0-2.88-3.06Z" transform="translate(0 0)"/><path class="cls-1" d="M96,15.77h1.65v2.07H89c-2,0-2.91-.9-2.91-2.67V12.69c0-1.71,1-2.58,2.91-2.58h4.68v-2A1.66,1.66,0,0,0,91.8,6.22H89V7.84H86.85V4.2h4.92C94.56,4.2,96,5.49,96,8Zm-2.31,0V12.15H89.19a.71.71,0,0,0-.81.78v2a.76.76,0,0,0,.67.84h4.61Z" transform="translate(0 0)"/><path class="cls-1" d="M99.17.26h-.54V2.18h-.31V.26H97.9V.53h-.28V0h1.55Z" transform="translate(0 0)"/><path class="cls-1" d="M100.51,1.63,101.14,0h.45V2.18h-.31V.52c0-.07,0-.15,0-.25h0c0,.1,0,.18-.07.25l-.53,1.34h-.4L99.78.52c0-.07,0-.16-.07-.25h0c0,.1,0,.18,0,.25V2.18h-.31V.26h-.18V0h.64Z" transform="translate(0 0)"/></svg>